<svg width="168" height="160" viewBox="0 0 168 160" fill="none" xmlns="http://www.w3.org/2000/svg">
<path d="M106 108.89C102.484 120.004 96.5938 128.421 88.3333 134.14C80.0677 139.848 69.6094 142.702 56.9583 142.702C49.1927 142.702 41.9844 141.374 35.3333 138.723C28.6927 136.056 22.7917 132.15 17.625 126.994C11.6771 121.036 7.25521 114.275 4.35417 106.702C1.44792 99.119 0 90.5461 0 80.9731C0 62.4731 5.33854 47.5513 16.0208 36.2023C26.7135 24.8429 40.8125 19.1606 58.3125 19.1606C64.7969 19.1606 71.7083 20.0148 79.0417 21.7231C86.375 23.4211 94.2708 25.994 102.729 29.4523V56.8898H93.7083C91.75 46.8898 87.8021 39.5304 81.875 34.8065C75.9427 30.0721 67.6354 27.7023 56.9583 27.7023C44.25 27.7023 34.625 32.2127 28.0833 41.2231C21.5417 50.2388 18.2708 63.4888 18.2708 80.9731C18.2708 98.4211 21.5417 111.65 28.0833 120.661C34.625 129.661 44.25 134.161 56.9583 134.161C65.8333 134.161 73.1354 132.051 78.875 127.827C84.625 123.609 88.7708 117.296 91.3125 108.89H106Z" fill="white" fill-opacity="0.302"/>
<path d="M109.249 108.548C105.733 119.663 99.8423 128.08 91.5819 133.798C83.3162 139.507 72.8579 142.361 60.2069 142.361C52.4412 142.361 45.2329 141.033 38.5819 138.382C31.9412 135.715 26.0402 131.809 20.8735 126.653C14.9256 120.694 10.5037 113.934 7.6027 106.361C4.69645 98.7775 3.24854 90.2046 3.24854 80.6317C3.24854 62.1317 8.58708 47.2098 19.2694 35.8609C29.9621 24.5015 44.061 18.8192 61.561 18.8192C68.0454 18.8192 74.9569 19.6734 82.2902 21.3817C89.6235 23.0796 97.5194 25.6525 105.978 29.1109V56.5484H96.9569C94.9985 46.5484 91.0506 39.189 85.1235 34.465C79.1912 29.7307 70.884 27.3609 60.2069 27.3609C47.4985 27.3609 37.8735 31.8713 31.3319 40.8817C24.7902 49.8973 21.5194 63.1473 21.5194 80.6317C21.5194 98.0796 24.7902 111.309 31.3319 120.319C37.8735 129.319 47.4985 133.819 60.2069 133.819C69.0819 133.819 76.384 131.71 82.1235 127.486C87.8735 123.267 92.0194 116.955 94.561 108.548H109.249Z" fill="white" fill-opacity="0.502"/>
<path d="M112.498 108.207C108.982 119.321 103.091 127.738 94.8309 133.457C86.5653 139.165 76.1069 142.019 63.4559 142.019C55.6903 142.019 48.4819 140.691 41.8309 138.04C35.1903 135.373 29.2892 131.467 24.1226 126.311C18.1746 120.353 13.7528 113.592 10.8517 106.019C7.94548 98.436 6.49756 89.8631 6.49756 80.2902C6.49756 61.7902 11.8361 46.8683 22.5184 35.5193C33.2111 24.16 47.3101 18.4777 64.8101 18.4777C71.2944 18.4777 78.2059 19.3318 85.5392 21.0402C92.8726 22.7381 100.768 25.311 109.227 28.7693V56.2068H100.206C98.2476 46.2068 94.2996 38.8475 88.3726 34.1235C82.4403 29.3891 74.133 27.0193 63.4559 27.0193C50.7476 27.0193 41.1226 31.5297 34.5809 40.5402C28.0392 49.5558 24.7684 62.8058 24.7684 80.2902C24.7684 97.7381 28.0392 110.967 34.5809 119.978C41.1226 128.978 50.7476 133.478 63.4559 133.478C72.3309 133.478 79.633 131.368 85.3726 127.144C91.1226 122.926 95.2684 116.613 97.8101 108.207H112.498Z" fill="white"/>
<path d="M50.5467 149.399V114.524L62.3592 114.628C62.6925 126.243 66.0519 134.837 72.4425 140.42C78.8436 145.993 88.5728 148.774 101.63 148.774C113.807 148.774 123.094 146.368 129.484 141.545C135.87 136.727 139.068 129.701 139.068 120.462C139.068 113.076 137.135 107.399 133.276 103.441C129.411 99.472 121.26 95.6075 108.818 91.8575L88.6092 85.795C73.9686 81.3523 63.6561 75.8158 57.6717 69.1908C51.6978 62.5554 48.7134 53.4564 48.7134 41.8991C48.7134 28.8991 53.3228 18.8158 62.5467 11.6491C71.7811 4.47205 84.7394 0.878296 101.422 0.878296C108.531 0.878296 116.323 1.64913 124.797 3.1908C133.281 4.72205 142.318 6.95642 151.901 9.89913V42.5033H140.297C139.14 31.7116 135.536 23.9095 129.484 19.0866C123.427 14.2533 114.213 11.8366 101.838 11.8366C91.0311 11.8366 82.8071 14.045 77.1717 18.4616C71.5311 22.8679 68.7134 29.2741 68.7134 37.6908C68.7134 45.0137 70.828 50.7533 75.0675 54.92C79.3019 59.0866 88.2967 63.2273 102.047 67.3366L121.026 72.9825C134.901 77.1491 144.797 82.4616 150.713 88.92C156.63 95.3783 159.588 104.045 159.588 114.92C159.588 129.769 154.828 140.956 145.318 148.482C135.818 155.998 121.661 159.753 102.859 159.753C94.453 159.753 85.8905 158.899 77.1717 157.191C68.4478 155.482 59.5728 152.889 50.5467 149.399Z" fill="white" fill-opacity="0.302"/>
<path d="M54.7254 148.96V114.085L66.5379 114.189C66.8713 125.804 70.2306 134.397 76.6213 139.981C83.0223 145.554 92.7515 148.335 105.809 148.335C117.986 148.335 127.272 145.929 133.663 141.106C140.048 136.288 143.246 129.262 143.246 120.022C143.246 112.637 141.314 106.96 137.455 103.002C133.59 99.0328 125.439 95.1683 112.996 91.4183L92.7879 85.3558C78.1473 80.913 67.8348 75.3766 61.8504 68.7516C55.8765 62.1162 52.8921 53.0172 52.8921 41.4599C52.8921 28.4599 57.5015 18.3766 66.7254 11.2099C75.9598 4.03284 88.9181 0.439087 105.6 0.439087C112.71 0.439087 120.501 1.20992 128.975 2.75159C137.46 4.28284 146.496 6.51721 156.08 9.45992V42.0641H144.475C143.319 31.2724 139.715 23.4703 133.663 18.6474C127.606 13.8141 118.392 11.3974 106.017 11.3974C95.2098 11.3974 86.9858 13.6058 81.3504 18.0224C75.7098 22.4287 72.8921 28.8349 72.8921 37.2516C72.8921 44.5745 75.0067 50.3141 79.2463 54.4808C83.4806 58.6474 92.4754 62.788 106.225 66.8974L125.205 72.5433C139.08 76.7099 148.975 82.0224 154.892 88.4808C160.809 94.9391 163.767 103.606 163.767 114.481C163.767 129.33 159.007 140.517 149.496 148.043C139.996 155.559 125.84 159.314 107.038 159.314C98.6317 159.314 90.0692 158.46 81.3504 156.752C72.6265 155.043 63.7515 152.45 54.7254 148.96Z" fill="white" fill-opacity="0.502"/>
<path d="M58.9036 148.521V113.646L70.7161 113.75C71.0495 125.365 74.4089 133.958 80.7995 139.542C87.2005 145.115 96.9297 147.896 109.987 147.896C122.164 147.896 131.451 145.49 137.841 140.667C144.227 135.849 147.424 128.823 147.424 119.583C147.424 112.198 145.492 106.521 141.633 102.563C137.768 98.5938 129.617 94.7292 117.174 90.9792L96.9661 84.9167C82.3255 80.474 72.013 74.9375 66.0286 68.3125C60.0547 61.6771 57.0703 52.5781 57.0703 41.0208C57.0703 28.0208 61.6797 17.9375 70.9036 10.7708C80.138 3.59375 93.0964 0 109.779 0C116.888 0 124.68 0.770833 133.154 2.3125C141.638 3.84375 150.674 6.07813 160.258 9.02083V41.625H148.654C147.497 30.8333 143.893 23.0313 137.841 18.2083C131.784 13.375 122.57 10.9583 110.195 10.9583C99.388 10.9583 91.1641 13.1667 85.5286 17.5833C79.888 21.9896 77.0703 28.3958 77.0703 36.8125C77.0703 44.1354 79.1849 49.875 83.4245 54.0417C87.6589 58.2083 96.6536 62.349 110.404 66.4583L129.383 72.1042C143.258 76.2708 153.154 81.5833 159.07 88.0417C164.987 94.5 167.945 103.167 167.945 114.042C167.945 128.891 163.185 140.078 153.674 147.604C144.174 155.12 130.018 158.875 111.216 158.875C102.81 158.875 94.2474 158.021 85.5286 156.313C76.8047 154.604 67.9297 152.01 58.9036 148.521Z" fill="white"/>
</svg>
