<svg xmlns="http://www.w3.org/2000/svg" xmlns:xlink="http://www.w3.org/1999/xlink" width="800" zoomAndPan="magnify" viewBox="0 0 600 599.999999" height="800" preserveAspectRatio="xMidYMid meet" version="1.0"><defs><g/><radialGradient gradientTransform="matrix(1, 0, 0, 1, 0.0000003, 0.00002)" gradientUnits="userSpaceOnUse" r="848.528227" cx="0" id="8591b79d95" cy="0" fx="0" fy="0"><stop stop-opacity="1" stop-color="rgb(5.879211%, 13.65509%, 27.270508%)" offset="0"/><stop stop-opacity="1" stop-color="rgb(5.879211%, 13.517761%, 26.937866%)" offset="0.03125"/><stop stop-opacity="1" stop-color="rgb(5.879211%, 13.388062%, 26.628113%)" offset="0.0585938"/><stop stop-opacity="1" stop-color="rgb(5.879211%, 13.259888%, 26.316833%)" offset="0.0859375"/><stop stop-opacity="1" stop-color="rgb(5.879211%, 13.131714%, 26.005554%)" offset="0.113281"/><stop stop-opacity="1" stop-color="rgb(5.879211%, 13.011169%, 25.717163%)" offset="0.140625"/><stop stop-opacity="1" stop-color="rgb(5.879211%, 12.901306%, 25.450134%)" offset="0.164062"/><stop stop-opacity="1" stop-color="rgb(5.879211%, 12.789917%, 25.183105%)" offset="0.1875"/><stop stop-opacity="1" stop-color="rgb(5.879211%, 12.680054%, 24.917603%)" offset="0.210938"/><stop stop-opacity="1" stop-color="rgb(5.879211%, 12.57019%, 24.650574%)" offset="0.234375"/><stop stop-opacity="1" stop-color="rgb(5.879211%, 12.469482%, 24.406433%)" offset="0.257812"/><stop stop-opacity="1" stop-color="rgb(5.879211%, 12.376404%, 24.185181%)" offset="0.277344"/><stop stop-opacity="1" stop-color="rgb(5.879211%, 12.284851%, 23.962402%)" offset="0.296875"/><stop stop-opacity="1" stop-color="rgb(5.879211%, 12.193298%, 23.739624%)" offset="0.316406"/><stop stop-opacity="1" stop-color="rgb(5.879211%, 12.10022%, 23.518372%)" offset="0.335938"/><stop stop-opacity="1" stop-color="rgb(5.879211%, 12.008667%, 23.295593%)" offset="0.355469"/><stop stop-opacity="1" stop-color="rgb(5.879211%, 11.917114%, 23.074341%)" offset="0.375"/><stop stop-opacity="1" stop-color="rgb(5.879211%, 11.834717%, 22.874451%)" offset="0.394531"/><stop stop-opacity="1" stop-color="rgb(5.879211%, 11.759949%, 22.695923%)" offset="0.410156"/><stop stop-opacity="1" stop-color="rgb(5.879211%, 11.686707%, 22.518921%)" offset="0.425781"/><stop stop-opacity="1" stop-color="rgb(5.879211%, 11.576843%, 22.251892%)" offset="0.441406"/><stop stop-opacity="1" stop-color="rgb(5.879211%, 11.428833%, 21.896362%)" offset="0.472656"/><stop stop-opacity="1" stop-color="rgb(5.879211%, 11.291504%, 21.563721%)" offset="0.503906"/><stop stop-opacity="1" stop-color="rgb(5.879211%, 11.161804%, 21.253967%)" offset="0.53125"/><stop stop-opacity="1" stop-color="rgb(5.879211%, 11.03363%, 20.942688%)" offset="0.558594"/><stop stop-opacity="1" stop-color="rgb(5.879211%, 10.914612%, 20.652771%)" offset="0.585938"/><stop stop-opacity="1" stop-color="rgb(5.879211%, 10.803223%, 20.387268%)" offset="0.609375"/><stop stop-opacity="1" stop-color="rgb(5.879211%, 10.702515%, 20.143127%)" offset="0.632812"/><stop stop-opacity="1" stop-color="rgb(5.879211%, 10.610962%, 19.920349%)" offset="0.652344"/><stop stop-opacity="1" stop-color="rgb(5.879211%, 10.517883%, 19.699097%)" offset="0.671875"/><stop stop-opacity="1" stop-color="rgb(5.879211%, 10.435486%, 19.499207%)" offset="0.691406"/><stop stop-opacity="1" stop-color="rgb(5.879211%, 10.362244%, 19.320679%)" offset="0.707031"/><stop stop-opacity="1" stop-color="rgb(5.879211%, 10.250854%, 19.05365%)" offset="0.722656"/><stop stop-opacity="1" stop-color="rgb(5.879211%, 10.113525%, 18.721008%)" offset="0.753906"/><stop stop-opacity="1" stop-color="rgb(5.879211%, 9.985352%, 18.411255%)" offset="0.78125"/><stop stop-opacity="1" stop-color="rgb(5.879211%, 9.864807%, 18.121338%)" offset="0.808594"/><stop stop-opacity="1" stop-color="rgb(5.879211%, 9.764099%, 17.877197%)" offset="0.832031"/><stop stop-opacity="1" stop-color="rgb(5.879211%, 9.681702%, 17.677307%)" offset="0.851562"/><stop stop-opacity="1" stop-color="rgb(5.879211%, 9.570312%, 17.410278%)" offset="0.867188"/><stop stop-opacity="1" stop-color="rgb(5.879211%, 9.442139%, 17.100525%)" offset="0.898438"/><stop stop-opacity="1" stop-color="rgb(5.879211%, 9.341431%, 16.856384%)" offset="0.921875"/><stop stop-opacity="1" stop-color="rgb(5.879211%, 9.230042%, 16.589355%)" offset="0.941406"/><stop stop-opacity="1" stop-color="rgb(5.879211%, 9.092712%, 16.256714%)" offset="0.96875"/><stop stop-opacity="1" stop-color="rgb(5.879211%, 9.01947%, 16.079712%)" offset="1"/></radialGradient></defs><rect x="-60" width="720" fill="#ffffff" y="-60" height="719.999999" fill-opacity="1"/><rect x="-60" fill="url(#8591b79d95)" width="720" y="-60" height="719.999999"/><g fill="#ffffff" fill-opacity="0.302"><g transform="translate(103.002835, 419.250852)"><g><path d="M 239.859375 -65.609375 C 232.546875 -42.460938 220.28125 -24.9375 203.0625 -13.03125 C 185.84375 -1.132812 164.054688 4.8125 137.703125 4.8125 C 121.535156 4.8125 106.53125 2.046875 92.6875 -3.484375 C 78.84375 -9.023438 66.550781 -17.164062 55.8125 -27.90625 C 43.40625 -40.3125 34.1875 -54.398438 28.15625 -70.171875 C 22.125 -85.953125 19.109375 -103.8125 19.109375 -123.75 C 19.109375 -162.289062 30.234375 -193.378906 52.484375 -217.015625 C 74.742188 -240.660156 104.09375 -252.484375 140.53125 -252.484375 C 154.039062 -252.484375 168.4375 -250.710938 183.71875 -247.171875 C 199 -243.628906 215.441406 -238.257812 233.046875 -231.0625 L 233.046875 -173.921875 L 214.28125 -173.921875 C 210.175781 -194.734375 201.953125 -210.066406 189.609375 -219.921875 C 177.265625 -229.773438 159.960938 -234.703125 137.703125 -234.703125 C 111.234375 -234.703125 91.1875 -225.316406 77.5625 -206.546875 C 63.945312 -187.785156 57.140625 -160.1875 57.140625 -123.75 C 57.140625 -87.425781 63.945312 -59.878906 77.5625 -41.109375 C 91.1875 -22.335938 111.234375 -12.953125 137.703125 -12.953125 C 156.191406 -12.953125 171.414062 -17.351562 183.375 -26.15625 C 195.34375 -34.96875 203.984375 -48.117188 209.296875 -65.609375 Z M 239.859375 -65.609375 "/></g></g></g><g fill="#ffffff" fill-opacity="0.502"><g transform="translate(109.769401, 418.539655)"><g><path d="M 239.859375 -65.609375 C 232.546875 -42.460938 220.28125 -24.9375 203.0625 -13.03125 C 185.84375 -1.132812 164.054688 4.8125 137.703125 4.8125 C 121.535156 4.8125 106.53125 2.046875 92.6875 -3.484375 C 78.84375 -9.023438 66.550781 -17.164062 55.8125 -27.90625 C 43.40625 -40.3125 34.1875 -54.398438 28.15625 -70.171875 C 22.125 -85.953125 19.109375 -103.8125 19.109375 -123.75 C 19.109375 -162.289062 30.234375 -193.378906 52.484375 -217.015625 C 74.742188 -240.660156 104.09375 -252.484375 140.53125 -252.484375 C 154.039062 -252.484375 168.4375 -250.710938 183.71875 -247.171875 C 199 -243.628906 215.441406 -238.257812 233.046875 -231.0625 L 233.046875 -173.921875 L 214.28125 -173.921875 C 210.175781 -194.734375 201.953125 -210.066406 189.609375 -219.921875 C 177.265625 -229.773438 159.960938 -234.703125 137.703125 -234.703125 C 111.234375 -234.703125 91.1875 -225.316406 77.5625 -206.546875 C 63.945312 -187.785156 57.140625 -160.1875 57.140625 -123.75 C 57.140625 -87.425781 63.945312 -59.878906 77.5625 -41.109375 C 91.1875 -22.335938 111.234375 -12.953125 137.703125 -12.953125 C 156.191406 -12.953125 171.414062 -17.351562 183.375 -26.15625 C 195.34375 -34.96875 203.984375 -48.117188 209.296875 -65.609375 Z M 239.859375 -65.609375 "/></g></g></g><g fill="#ffffff" fill-opacity="1"><g transform="translate(116.535961, 417.828458)"><g><path d="M 239.859375 -65.609375 C 232.546875 -42.460938 220.28125 -24.9375 203.0625 -13.03125 C 185.84375 -1.132812 164.054688 4.8125 137.703125 4.8125 C 121.535156 4.8125 106.53125 2.046875 92.6875 -3.484375 C 78.84375 -9.023438 66.550781 -17.164062 55.8125 -27.90625 C 43.40625 -40.3125 34.1875 -54.398438 28.15625 -70.171875 C 22.125 -85.953125 19.109375 -103.8125 19.109375 -123.75 C 19.109375 -162.289062 30.234375 -193.378906 52.484375 -217.015625 C 74.742188 -240.660156 104.09375 -252.484375 140.53125 -252.484375 C 154.039062 -252.484375 168.4375 -250.710938 183.71875 -247.171875 C 199 -243.628906 215.441406 -238.257812 233.046875 -231.0625 L 233.046875 -173.921875 L 214.28125 -173.921875 C 210.175781 -194.734375 201.953125 -210.066406 189.609375 -219.921875 C 177.265625 -229.773438 159.960938 -234.703125 137.703125 -234.703125 C 111.234375 -234.703125 91.1875 -225.316406 77.5625 -206.546875 C 63.945312 -187.785156 57.140625 -160.1875 57.140625 -123.75 C 57.140625 -87.425781 63.945312 -59.878906 77.5625 -41.109375 C 91.1875 -22.335938 111.234375 -12.953125 137.703125 -12.953125 C 156.191406 -12.953125 171.414062 -17.351562 183.375 -26.15625 C 195.34375 -34.96875 203.984375 -48.117188 209.296875 -65.609375 Z M 239.859375 -65.609375 "/></g></g></g><g fill="#ffffff" fill-opacity="0.302"><g transform="translate(186.801598, 452.894033)"><g><path d="M 40.59375 -15.375 L 40.59375 -88.015625 L 65.15625 -87.8125 C 65.875 -63.59375 72.890625 -45.679688 86.203125 -34.078125 C 99.523438 -22.472656 119.785156 -16.671875 146.984375 -16.671875 C 172.335938 -16.671875 191.671875 -21.6875 204.984375 -31.71875 C 218.304688 -41.757812 224.96875 -56.394531 224.96875 -75.625 C 224.96875 -91.007812 220.941406 -102.832031 212.890625 -111.09375 C 204.847656 -119.351562 187.863281 -127.398438 161.9375 -135.234375 L 119.859375 -147.84375 C 89.378906 -157.101562 67.90625 -168.640625 55.4375 -182.453125 C 42.976562 -196.265625 36.75 -215.207031 36.75 -239.28125 C 36.75 -266.34375 46.363281 -287.347656 65.59375 -302.296875 C 84.820312 -317.253906 111.8125 -324.734375 146.5625 -324.734375 C 161.375 -324.734375 177.609375 -323.128906 195.265625 -319.921875 C 212.929688 -316.722656 231.734375 -312.0625 251.671875 -305.9375 L 251.671875 -238 L 227.53125 -238 C 225.113281 -260.5 217.597656 -276.769531 204.984375 -286.8125 C 192.378906 -296.851562 173.191406 -301.875 147.421875 -301.875 C 124.910156 -301.875 107.78125 -297.28125 96.03125 -288.09375 C 84.28125 -278.914062 78.40625 -265.566406 78.40625 -248.046875 C 78.40625 -232.804688 82.820312 -220.84375 91.65625 -212.15625 C 100.488281 -203.46875 119.21875 -194.847656 147.84375 -186.296875 L 187.375 -174.546875 C 216.28125 -165.859375 236.894531 -154.785156 249.21875 -141.328125 C 261.539062 -127.867188 267.703125 -109.816406 267.703125 -87.171875 C 267.703125 -56.265625 257.800781 -32.972656 238 -17.296875 C 218.207031 -1.628906 188.722656 6.203125 149.546875 6.203125 C 132.035156 6.203125 114.195312 4.421875 96.03125 0.859375 C 77.875 -2.703125 59.394531 -8.113281 40.59375 -15.375 Z M 40.59375 -15.375 "/></g></g></g><g fill="#ffffff" fill-opacity="0.502"><g transform="translate(195.504572, 451.979312)"><g><path d="M 40.59375 -15.375 L 40.59375 -88.015625 L 65.15625 -87.8125 C 65.875 -63.59375 72.890625 -45.679688 86.203125 -34.078125 C 99.523438 -22.472656 119.785156 -16.671875 146.984375 -16.671875 C 172.335938 -16.671875 191.671875 -21.6875 204.984375 -31.71875 C 218.304688 -41.757812 224.96875 -56.394531 224.96875 -75.625 C 224.96875 -91.007812 220.941406 -102.832031 212.890625 -111.09375 C 204.847656 -119.351562 187.863281 -127.398438 161.9375 -135.234375 L 119.859375 -147.84375 C 89.378906 -157.101562 67.90625 -168.640625 55.4375 -182.453125 C 42.976562 -196.265625 36.75 -215.207031 36.75 -239.28125 C 36.75 -266.34375 46.363281 -287.347656 65.59375 -302.296875 C 84.820312 -317.253906 111.8125 -324.734375 146.5625 -324.734375 C 161.375 -324.734375 177.609375 -323.128906 195.265625 -319.921875 C 212.929688 -316.722656 231.734375 -312.0625 251.671875 -305.9375 L 251.671875 -238 L 227.53125 -238 C 225.113281 -260.5 217.597656 -276.769531 204.984375 -286.8125 C 192.378906 -296.851562 173.191406 -301.875 147.421875 -301.875 C 124.910156 -301.875 107.78125 -297.28125 96.03125 -288.09375 C 84.28125 -278.914062 78.40625 -265.566406 78.40625 -248.046875 C 78.40625 -232.804688 82.820312 -220.84375 91.65625 -212.15625 C 100.488281 -203.46875 119.21875 -194.847656 147.84375 -186.296875 L 187.375 -174.546875 C 216.28125 -165.859375 236.894531 -154.785156 249.21875 -141.328125 C 261.539062 -127.867188 267.703125 -109.816406 267.703125 -87.171875 C 267.703125 -56.265625 257.800781 -32.972656 238 -17.296875 C 218.207031 -1.628906 188.722656 6.203125 149.546875 6.203125 C 132.035156 6.203125 114.195312 4.421875 96.03125 0.859375 C 77.875 -2.703125 59.394531 -8.113281 40.59375 -15.375 Z M 40.59375 -15.375 "/></g></g></g><g fill="#ffffff" fill-opacity="1"><g transform="translate(204.207545, 451.06459)"><g><path d="M 40.59375 -15.375 L 40.59375 -88.015625 L 65.15625 -87.8125 C 65.875 -63.59375 72.890625 -45.679688 86.203125 -34.078125 C 99.523438 -22.472656 119.785156 -16.671875 146.984375 -16.671875 C 172.335938 -16.671875 191.671875 -21.6875 204.984375 -31.71875 C 218.304688 -41.757812 224.96875 -56.394531 224.96875 -75.625 C 224.96875 -91.007812 220.941406 -102.832031 212.890625 -111.09375 C 204.847656 -119.351562 187.863281 -127.398438 161.9375 -135.234375 L 119.859375 -147.84375 C 89.378906 -157.101562 67.90625 -168.640625 55.4375 -182.453125 C 42.976562 -196.265625 36.75 -215.207031 36.75 -239.28125 C 36.75 -266.34375 46.363281 -287.347656 65.59375 -302.296875 C 84.820312 -317.253906 111.8125 -324.734375 146.5625 -324.734375 C 161.375 -324.734375 177.609375 -323.128906 195.265625 -319.921875 C 212.929688 -316.722656 231.734375 -312.0625 251.671875 -305.9375 L 251.671875 -238 L 227.53125 -238 C 225.113281 -260.5 217.597656 -276.769531 204.984375 -286.8125 C 192.378906 -296.851562 173.191406 -301.875 147.421875 -301.875 C 124.910156 -301.875 107.78125 -297.28125 96.03125 -288.09375 C 84.28125 -278.914062 78.40625 -265.566406 78.40625 -248.046875 C 78.40625 -232.804688 82.820312 -220.84375 91.65625 -212.15625 C 100.488281 -203.46875 119.21875 -194.847656 147.84375 -186.296875 L 187.375 -174.546875 C 216.28125 -165.859375 236.894531 -154.785156 249.21875 -141.328125 C 261.539062 -127.867188 267.703125 -109.816406 267.703125 -87.171875 C 267.703125 -56.265625 257.800781 -32.972656 238 -17.296875 C 218.207031 -1.628906 188.722656 6.203125 149.546875 6.203125 C 132.035156 6.203125 114.195312 4.421875 96.03125 0.859375 C 77.875 -2.703125 59.394531 -8.113281 40.59375 -15.375 Z M 40.59375 -15.375 "/></g></g></g></svg>